# xmcd
#
# Track frame offsets: 
#        150
#        13247
#        26870
#        34742
#        48177
#        60715
#        73437
#        85697
#        96100
#        106325
#        112795
#        124562
#        138992
#        153442
#        165587
#
# Disc length: 2360 seconds
#
# Revision: 2
# Processed by: cddbd v1.5.2PL0 Copyright (c) Steve Scherf et al.
# Submitted via: ExactAudioCopy v0.99pb5
#
DISCID=c109360f
DTITLE=Schankman Twins - Duality
DYEAR=1996
DGENRE=Bluegrass
TTITLE0=Montana Cowboy
TTITLE1=AppleJack
TTITLE2=Shuckin The Corn
TTITLE3=Waterbound
TTITLE4=Blue Kentucky Girl
TTITLE5=Thibodaux
TTITLE6=When The Roses Bloom In Dixieland
TTITLE7=Sally Ann
TTITLE8=Shenandoah [Feat. Michael Alden]
TTITLE9=Lauren Goes To Town
TTITLE10=Livin On Love
TTITLE11=Back To Dixie
TTITLE12=Grandpa Get Your Guitar
TTITLE13=Ashoken Farewell
TTITLE14=How Mountain Girls Can Love
EXTD=
EXTT0=
EXTT1=
EXTT2=
EXTT3=
EXTT4=
EXTT5=
EXTT6=
EXTT7=
EXTT8=
EXTT9=
EXTT10=
EXTT11=
EXTT12=
EXTT13=
EXTT14=
PLAYORDER=
